<svg xmlns="http://www.w3.org/2000/svg" width="741" height="523" viewBox="0 0 741 523">
  <g id="Group_4" data-name="Group 4" transform="translate(-917 -304)">
    <rect id="Rectangle_6" data-name="Rectangle 6" width="698" height="421" rx="15" transform="translate(960 340)" fill="#fff"/>
    <path id="Subtraction_1" data-name="Subtraction 1" d="M362,28H22A14,14,0,0,1,8,14H376a14,14,0,0,1-14,14Z" transform="translate(1117 327)" fill="#fff"/>
    <rect id="Rectangle_9" data-name="Rectangle 9" width="370" height="91" rx="10" transform="translate(1254 418)" fill="#fff"/>
    <rect id="Rectangle_14" data-name="Rectangle 14" width="200" height="186" rx="10" transform="translate(1254 517)" fill="#fff"/>
    <rect id="Rectangle_46" data-name="Rectangle 46" width="200" height="186" rx="10" transform="translate(1005 517)" fill="#fff"/>
    <rect id="Rectangle_15" data-name="Rectangle 15" width="166" height="91" rx="10" transform="translate(1458 517)" fill="#fff"/>
    <rect id="Rectangle_16" data-name="Rectangle 16" width="83" height="91" rx="10" transform="translate(1458 612)" fill="#fff"/>
    <rect id="Rectangle_17" data-name="Rectangle 17" width="79" height="91" rx="10" transform="translate(1545 612)" fill="#fff"/>
    <text id="Analytics" transform="translate(1273 441)" fill="#fff" font-size="16" font-family="Poppins-Regular, Poppins"><tspan x="0" y="0">Analytics</tspan></text>
    <text id="Stats" transform="translate(1274 537)" fill="#fff" font-size="16" font-family="Poppins-Regular, Poppins"><tspan x="0" y="0">Stats</tspan></text>
    <text id="Stats-2" data-name="Stats" transform="translate(1025 537)" fill="#fff" font-size="16" font-family="Poppins-Regular, Poppins"><tspan x="0" y="0">Stats</tspan></text>
    <text id="Total_Sales" data-name="Total Sales" transform="translate(1469 537)" fill="#6e6e6e" font-size="16" font-family="Poppins-Regular, Poppins"><tspan x="0" y="0">Total Sales</tspan></text>
    <text id="_85_000.00" data-name="$ 85,000.00" transform="translate(1469 630)" fill="#6e6e6e" font-size="8" font-family="Poppins-Bold, Poppins" font-weight="700"><tspan x="0" y="0">$ 85,000.00</tspan></text>
    <text id="Calculated_in_last_7_days" data-name="Calculated in last 7 days" transform="translate(1469 557)" fill="#6e6e6e" font-size="8" font-family="Poppins-Regular, Poppins"><tspan x="0" y="0">Calculated in last 7 days</tspan></text>
    <text id="_8058_640.00_10.30_" data-name="£8058,640.00  +10.30%" transform="translate(1469 571)" fill="#6e6e6e" font-size="8" font-family="Poppins-Regular, Poppins"><tspan x="0" y="0">£8058,640.00</tspan><tspan y="0" xml:space="preserve" fill="#fff">  </tspan><tspan y="0" fill="#47a21a" font-size="6">+10.30%</tspan></text>
    <text id="Total_48.5_growth_this_month" data-name="Total 48.5% growth 😎 this month" transform="translate(1273 456)" fill="#fff" font-size="8" font-family="Poppins-Regular, Poppins"><tspan x="0" y="0">Total 48.5% growth </tspan><tspan y="0" font-family="SegoeUIEmoji, Segoe UI Emoji">😎</tspan><tspan y="0" xml:space="preserve"> this month</tspan></text>
    <text id="Sales" transform="translate(1302 480)" fill="#fff" font-size="8" font-family="Poppins-Regular, Poppins"><tspan x="0" y="0">Sales</tspan></text>
    <text id="Customers" transform="translate(1382 480)" fill="#fff" font-size="8" font-family="Poppins-Regular, Poppins"><tspan x="0" y="0">Customers</tspan></text>
    <text id="Volume" transform="translate(1461 480)" fill="#fff" font-size="8" font-family="Poppins-Regular, Poppins"><tspan x="0" y="0">Volume</tspan></text>
    <text id="Revenue" transform="translate(1541 480)" fill="#fff" font-size="8" font-family="Poppins-Regular, Poppins"><tspan x="0" y="0">Revenue</tspan></text>
    <text id="_1_300" data-name="1,300" transform="translate(1302 491)" fill="#fff" font-size="8" font-family="Poppins-Regular, Poppins"><tspan x="0" y="0">1,300</tspan></text>
    <text id="_13_495" data-name="13,495" transform="translate(1382 491)" fill="#fff" font-size="8" font-family="Poppins-Regular, Poppins"><tspan x="0" y="0">13,495</tspan></text>
    <text id="_3.89m" data-name="$ 3.89m" transform="translate(1461 491)" fill="#fff" font-size="8" font-family="Poppins-Regular, Poppins"><tspan x="0" y="0">$ 3.89m</tspan></text>
    <text id="_30.00k" data-name="$ 30.00k" transform="translate(1541 491)" fill="#fff" font-size="8" font-family="Poppins-Regular, Poppins"><tspan x="0" y="0">$ 30.00k</tspan></text>
    <rect id="Rectangle_10" data-name="Rectangle 10" width="22" height="22" rx="5" transform="translate(1273 472)" fill="#9731ea"/>
    <rect id="Rectangle_11" data-name="Rectangle 11" width="22" height="22" rx="5" transform="translate(1353 472)" fill="#19a24c"/>
    <rect id="Rectangle_12" data-name="Rectangle 12" width="22" height="22" rx="5" transform="translate(1432 472)" fill="#ca8805"/>
    <rect id="Rectangle_13" data-name="Rectangle 13" width="22" height="22" rx="5" transform="translate(1512 472)" fill="#0284c6"/>
    <circle id="Ellipse_1" data-name="Ellipse 1" cx="9" cy="9" r="9" transform="translate(1274 550)" fill="#d9272b"/>
    <circle id="Ellipse_7" data-name="Ellipse 7" cx="9" cy="9" r="9" transform="translate(1025 550)" fill="#d9272b"/>
    <circle id="Ellipse_2" data-name="Ellipse 2" cx="9" cy="9" r="9" transform="translate(1274 581)" fill="#2b6ba2"/>
    <circle id="Ellipse_8" data-name="Ellipse 8" cx="9" cy="9" r="9" transform="translate(1025 581)" fill="#2b6ba2"/>
    <circle id="Ellipse_3" data-name="Ellipse 3" cx="9" cy="9" r="9" transform="translate(1274 612)" fill="#e6580a"/>
    <circle id="Ellipse_9" data-name="Ellipse 9" cx="9" cy="9" r="9" transform="translate(1025 612)" fill="#e6580a"/>
    <circle id="Ellipse_4" data-name="Ellipse 4" cx="9" cy="9" r="9" transform="translate(1274 642)" fill="#16a246"/>
    <circle id="Ellipse_10" data-name="Ellipse 10" cx="9" cy="9" r="9" transform="translate(1025 642)" fill="#16a246"/>
    <circle id="Ellipse_5" data-name="Ellipse 5" cx="9" cy="9" r="9" transform="translate(1274 673)" fill="#c98805"/>
    <circle id="Ellipse_11" data-name="Ellipse 11" cx="9" cy="9" r="9" transform="translate(1025 673)" fill="#c98805"/>
    <rect id="Rectangle_18" data-name="Rectangle 18" width="18" height="18" rx="3" transform="translate(1416 548)" fill="#b5d9e2"/>
    <rect id="Rectangle_41" data-name="Rectangle 41" width="18" height="18" rx="3" transform="translate(1167 548)" fill="#b5d9e2"/>
    <rect id="Rectangle_19" data-name="Rectangle 19" width="18" height="18" rx="3" transform="translate(1417 581)" fill="#b5d9e2"/>
    <rect id="Rectangle_42" data-name="Rectangle 42" width="18" height="18" rx="3" transform="translate(1168 581)" fill="#b5d9e2"/>
    <rect id="Rectangle_20" data-name="Rectangle 20" width="18" height="18" rx="3" transform="translate(1417 612)" fill="#b5d9e2"/>
    <rect id="Rectangle_43" data-name="Rectangle 43" width="18" height="18" rx="3" transform="translate(1168 612)" fill="#b5d9e2"/>
    <rect id="Rectangle_21" data-name="Rectangle 21" width="18" height="18" rx="3" transform="translate(1417 642)" fill="#b5d9e2"/>
    <rect id="Rectangle_44" data-name="Rectangle 44" width="18" height="18" rx="3" transform="translate(1168 642)" fill="#b5d9e2"/>
    <rect id="Rectangle_22" data-name="Rectangle 22" width="18" height="18" rx="3" transform="translate(1417 673)" fill="#b5d9e2"/>
    <rect id="Rectangle_45" data-name="Rectangle 45" width="18" height="18" rx="3" transform="translate(1168 673)" fill="#b5d9e2"/>
    <path id="Path_44" data-name="Path 44" d="M1399.361,920.45l2.456,2.349-2.456,2.242" transform="translate(25.411 -240.746)" fill="none" stroke="#fff" stroke-linecap="round" stroke-linejoin="round" stroke-width="1"/>
    <path id="Path_54" data-name="Path 54" d="M1399.361,920.45l2.456,2.349-2.456,2.242" transform="translate(-223.589 -240.746)" fill="none" stroke="#fff" stroke-linecap="round" stroke-linejoin="round" stroke-width="1"/>
    <path id="Path_45" data-name="Path 45" d="M1399.361,920.45l2.456,2.349-2.456,2.242" transform="translate(25.411 -271.746)" fill="none" stroke="#fff" stroke-linecap="round" stroke-linejoin="round" stroke-width="1"/>
    <path id="Path_53" data-name="Path 53" d="M1399.361,920.45l2.456,2.349-2.456,2.242" transform="translate(-223.589 -271.746)" fill="none" stroke="#fff" stroke-linecap="round" stroke-linejoin="round" stroke-width="1"/>
    <path id="Path_46" data-name="Path 46" d="M1399.361,920.45l2.456,2.349-2.456,2.242" transform="translate(25.411 -301.746)" fill="none" stroke="#fff" stroke-linecap="round" stroke-linejoin="round" stroke-width="1"/>
    <path id="Path_52" data-name="Path 52" d="M1399.361,920.45l2.456,2.349-2.456,2.242" transform="translate(-223.589 -301.746)" fill="none" stroke="#fff" stroke-linecap="round" stroke-linejoin="round" stroke-width="1"/>
    <path id="Path_47" data-name="Path 47" d="M1399.361,920.45l2.456,2.349-2.456,2.242" transform="translate(25.411 -332.746)" fill="none" stroke="#fff" stroke-linecap="round" stroke-linejoin="round" stroke-width="1"/>
    <path id="Path_51" data-name="Path 51" d="M1399.361,920.45l2.456,2.349-2.456,2.242" transform="translate(-223.589 -332.746)" fill="none" stroke="#fff" stroke-linecap="round" stroke-linejoin="round" stroke-width="1"/>
    <path id="Path_48" data-name="Path 48" d="M1399.361,920.45l2.456,2.349-2.456,2.242" transform="translate(25.411 -365.746)" fill="none" stroke="#fff" stroke-linecap="round" stroke-linejoin="round" stroke-width="1"/>
    <path id="Path_50" data-name="Path 50" d="M1399.361,920.45l2.456,2.349-2.456,2.242" transform="translate(-223.589 -365.746)" fill="none" stroke="#fff" stroke-linecap="round" stroke-linejoin="round" stroke-width="1"/>
    <text id="_12" data-name="12" transform="translate(1280 562)" fill="#fff" font-size="8" font-family="Poppins-Regular, Poppins"><tspan x="0" y="0">12</tspan></text>
    <text id="_12-2" data-name="12" transform="translate(1031 562)" fill="#fff" font-size="8" font-family="Poppins-Regular, Poppins"><tspan x="0" y="0">12</tspan></text>
    <text id="Failed" transform="translate(1298 558)" fill="#fff" font-size="8" font-family="Poppins-Regular, Poppins"><tspan x="0" y="0">Failed</tspan></text>
    <text id="Failed-2" data-name="Failed" transform="translate(1049 558)" fill="#fff" font-size="8" font-family="Poppins-Regular, Poppins"><tspan x="0" y="0">Failed</tspan></text>
    <text id="In_Transit" data-name="In Transit" transform="translate(1298 590)" fill="#fff" font-size="8" font-family="Poppins-Regular, Poppins"><tspan x="0" y="0">In Transit</tspan></text>
    <text id="In_Transit-2" data-name="In Transit" transform="translate(1049 590)" fill="#fff" font-size="8" font-family="Poppins-Regular, Poppins"><tspan x="0" y="0">In Transit</tspan></text>
    <text id="Under_Review" data-name="Under Review" transform="translate(1298 619)" fill="#fff" font-size="8" font-family="Poppins-Regular, Poppins"><tspan x="0" y="0">Under Review</tspan></text>
    <text id="Under_Review-2" data-name="Under Review" transform="translate(1049 619)" fill="#fff" font-size="8" font-family="Poppins-Regular, Poppins"><tspan x="0" y="0">Under Review</tspan></text>
    <text id="Ready_for_payout" data-name="Ready for payout" transform="translate(1298 650)" fill="#fff" font-size="8" font-family="Poppins-Regular, Poppins"><tspan x="0" y="0">Ready for payout</tspan></text>
    <text id="Ready_for_payout-2" data-name="Ready for payout" transform="translate(1049 650)" fill="#fff" font-size="8" font-family="Poppins-Regular, Poppins"><tspan x="0" y="0">Ready for payout</tspan></text>
    <text id="Document_Required" data-name="Document Required" transform="translate(1298 681)" fill="#fff" font-size="8" font-family="Poppins-Regular, Poppins"><tspan x="0" y="0">Document Required</tspan></text>
    <text id="Document_Required-2" data-name="Document Required" transform="translate(1049 681)" fill="#fff" font-size="8" font-family="Poppins-Regular, Poppins"><tspan x="0" y="0">Document Required</tspan></text>
    <text id="_12_Transactions" data-name="12 Transactions" transform="translate(1298 566)" fill="#fff" font-size="6" font-family="Poppins-Regular, Poppins"><tspan x="0" y="0">12 Transactions</tspan></text>
    <text id="_12_Transactions-2" data-name="12 Transactions" transform="translate(1049 566)" fill="#fff" font-size="6" font-family="Poppins-Regular, Poppins"><tspan x="0" y="0">12 Transactions</tspan></text>
    <text id="_30_Transactions" data-name="30 Transactions" transform="translate(1298 598)" fill="#fff" font-size="6" font-family="Poppins-Regular, Poppins"><tspan x="0" y="0">30 Transactions</tspan></text>
    <text id="_30_Transactions-2" data-name="30 Transactions" transform="translate(1049 598)" fill="#fff" font-size="6" font-family="Poppins-Regular, Poppins"><tspan x="0" y="0">30 Transactions</tspan></text>
    <text id="_10_Transactions" data-name="10 Transactions" transform="translate(1298 627)" fill="#fff" font-size="6" font-family="Poppins-Regular, Poppins"><tspan x="0" y="0">10 Transactions</tspan></text>
    <text id="_10_Transactions-2" data-name="10 Transactions" transform="translate(1049 627)" fill="#fff" font-size="6" font-family="Poppins-Regular, Poppins"><tspan x="0" y="0">10 Transactions</tspan></text>
    <text id="_65_Transactions" data-name="65 Transactions" transform="translate(1298 658)" fill="#fff" font-size="6" font-family="Poppins-Regular, Poppins"><tspan x="0" y="0">65 Transactions</tspan></text>
    <text id="_65_Transactions-2" data-name="65 Transactions" transform="translate(1049 658)" fill="#fff" font-size="6" font-family="Poppins-Regular, Poppins"><tspan x="0" y="0">65 Transactions</tspan></text>
    <text id="_07_Transactions" data-name="07 Transactions" transform="translate(1298 689)" fill="#fff" font-size="6" font-family="Poppins-Regular, Poppins"><tspan x="0" y="0">07 Transactions</tspan></text>
    <text id="_07_Transactions-2" data-name="07 Transactions" transform="translate(1049 689)" fill="#fff" font-size="6" font-family="Poppins-Regular, Poppins"><tspan x="0" y="0">07 Transactions</tspan></text>
    <text id="_30" data-name="30" transform="translate(1278 593)" fill="#fff" font-size="8" font-family="Poppins-Regular, Poppins"><tspan x="0" y="0">30</tspan></text>
    <text id="_30-2" data-name="30" transform="translate(1029 593)" fill="#fff" font-size="8" font-family="Poppins-Regular, Poppins"><tspan x="0" y="0">30</tspan></text>
    <text id="_10" data-name="10" transform="translate(1279 624)" fill="#fff" font-size="8" font-family="Poppins-Regular, Poppins"><tspan x="0" y="0">10</tspan></text>
    <text id="_10-2" data-name="10" transform="translate(1030 624)" fill="#fff" font-size="8" font-family="Poppins-Regular, Poppins"><tspan x="0" y="0">10</tspan></text>
    <text id="_65" data-name="65" transform="translate(1278 654)" fill="#fff" font-size="8" font-family="Poppins-Regular, Poppins"><tspan x="0" y="0">65</tspan></text>
    <text id="_65-2" data-name="65" transform="translate(1029 654)" fill="#fff" font-size="8" font-family="Poppins-Regular, Poppins"><tspan x="0" y="0">65</tspan></text>
    <text id="_7" data-name="7" transform="translate(1281 685)" fill="#fff" font-size="8" font-family="Poppins-Regular, Poppins"><tspan x="0" y="0">7</tspan></text>
    <text id="_7-2" data-name="7" transform="translate(1032 685)" fill="#fff" font-size="8" font-family="Poppins-Regular, Poppins"><tspan x="0" y="0">7</tspan></text>
    <g id="Group_1" data-name="Group 1" transform="translate(7 -16)">
      <rect id="Rectangle_23" data-name="Rectangle 23" width="3" height="16" rx="1.5" transform="translate(1570 574)" fill="#4688f4"/>
      <rect id="Rectangle_31" data-name="Rectangle 31" width="3" height="16" rx="1.5" transform="translate(1602 574)" fill="#4688f4"/>
      <rect id="Rectangle_24" data-name="Rectangle 24" width="3" height="13" rx="1.5" transform="translate(1574 577)" fill="#4688f4"/>
      <rect id="Rectangle_25" data-name="Rectangle 25" width="3" height="23" rx="1.5" transform="translate(1578 567)" fill="#4688f4"/>
      <rect id="Rectangle_26" data-name="Rectangle 26" width="3" height="19" rx="1.5" transform="translate(1582 571)" fill="#4688f4"/>
      <rect id="Rectangle_27" data-name="Rectangle 27" width="3" height="26" rx="1.5" transform="translate(1586 564)" fill="#4688f4"/>
      <rect id="Rectangle_28" data-name="Rectangle 28" width="3" height="22" rx="1.5" transform="translate(1590 568)" fill="#4688f4"/>
      <rect id="Rectangle_29" data-name="Rectangle 29" width="3" height="16" rx="1.5" transform="translate(1594 574)" fill="#4688f4"/>
      <rect id="Rectangle_30" data-name="Rectangle 30" width="3" height="13" rx="1.5" transform="translate(1598 577)" fill="#4688f4"/>
    </g>
    <line id="Line_1" data-name="Line 1" y2="48" transform="translate(1469.5 636.5)" fill="none" stroke="#fff" stroke-width="1" stroke-dasharray="2 2"/>
    <line id="Line_2" data-name="Line 2" y2="48" transform="translate(1481.5 636.5)" fill="none" stroke="#fff" stroke-width="1" stroke-dasharray="2 2"/>
    <line id="Line_3" data-name="Line 3" y2="48" transform="translate(1493.5 636.5)" fill="none" stroke="#fff" stroke-width="1" stroke-dasharray="2 2"/>
    <line id="Line_4" data-name="Line 4" y2="48" transform="translate(1505.5 636.5)" fill="none" stroke="#fff" stroke-width="1" stroke-dasharray="2 2"/>
    <line id="Line_5" data-name="Line 5" y2="48" transform="translate(1529.5 636.5)" fill="none" stroke="#fff" stroke-width="1" stroke-dasharray="2 2"/>
    <line id="Line_6" data-name="Line 6" y2="48" transform="translate(1517.5 636.5)" fill="none" stroke="#fff" stroke-width="1" stroke-dasharray="2 2"/>
    <path id="Path_49" data-name="Path 49" d="M1469.5,684.5l11.98-16.368,11.261,9.618,12.668-20.41,11.261,10.792,12.9-18.064" fill="none" stroke="#fff" stroke-width="1"/>
    <circle id="Ellipse_6" data-name="Ellipse 6" cx="2" cy="2" r="2" transform="translate(1527 648)" fill="#4688f4"/>
    <g id="Group_2" data-name="Group 2" transform="translate(15.5 -44.121)">
      <rect id="Rectangle_32" data-name="Rectangle 32" width="305" height="523" rx="45" transform="translate(901.5 348.121)" fill="#fff"/>
      <path id="Subtraction_2" data-name="Subtraction 2" d="M170,24H15A15,15,0,0,1,0,9V0H185V9a15,15,0,0,1-15,15Z" transform="translate(961.5 348.121)" fill="#fff"/>
    </g>
    <rect id="Rectangle_35" data-name="Rectangle 35" width="254" height="104" rx="10" transform="translate(943 355)" fill="#fff"/>
    <text id="Total_Sales-2" data-name="Total Sales" transform="translate(960 385)" fill="#fff" font-size="24" font-family="Poppins-Regular, Poppins"><tspan x="0" y="0">Total Sales</tspan></text>
    <text id="Calculated_in_last_7_days-2" data-name="Calculated in last 7 days" transform="translate(960 417)" fill="#fff" font-size="12" font-family="Poppins-Regular, Poppins"><tspan x="0" y="0">Calculated in last 7 days</tspan></text>
    <text id="_8058_640.00_10.30_2" data-name="£8058,640.00  +10.30%" transform="translate(960 438)" fill="#6e6e6e" font-size="12" font-family="Poppins-Regular, Poppins"><tspan x="0" y="0">£8058,640.00</tspan><tspan y="0" xml:space="preserve" fill="#fff">  </tspan><tspan y="0" fill="#47a21a" font-size="9">+10.30%</tspan></text>
    <g id="Group_3" data-name="Group 3" transform="translate(1124.989 402.352)">
      <rect id="Rectangle_23-2" data-name="Rectangle 23" width="5" height="24" rx="2.5" transform="translate(0.011 15.648)" fill="#4688f4"/>
      <rect id="Rectangle_31-2" data-name="Rectangle 31" width="4" height="24" rx="2" transform="translate(49.011 15.648)" fill="#4688f4"/>
      <rect id="Rectangle_24-2" data-name="Rectangle 24" width="5" height="20" rx="2.5" transform="translate(6.011 19.648)" fill="#4688f4"/>
      <rect id="Rectangle_25-2" data-name="Rectangle 25" width="5" height="35" rx="2.5" transform="translate(12.011 4.648)" fill="#4688f4"/>
      <rect id="Rectangle_26-2" data-name="Rectangle 26" width="5" height="29" rx="2.5" transform="translate(18.011 10.648)" fill="#4688f4"/>
      <rect id="Rectangle_27-2" data-name="Rectangle 27" width="5" height="40" rx="2.5" transform="translate(24.011 -0.352)" fill="#4688f4"/>
      <rect id="Rectangle_28-2" data-name="Rectangle 28" width="4" height="34" rx="2" transform="translate(31.011 5.648)" fill="#4688f4"/>
      <rect id="Rectangle_29-2" data-name="Rectangle 29" width="4" height="24" rx="2" transform="translate(37.011 15.648)" fill="#4688f4"/>
      <rect id="Rectangle_30-2" data-name="Rectangle 30" width="4" height="20" rx="2" transform="translate(43.011 19.648)" fill="#4688f4"/>
    </g>
    <rect id="Rectangle_36" data-name="Rectangle 36" width="254" height="63" rx="10" transform="translate(943 469)" fill="#fff"/>
    <text id="Analytics-2" data-name="Analytics" transform="translate(956 485)" fill="#fff" font-size="10" font-family="Poppins-Regular, Poppins"><tspan x="0" y="0">Analytics</tspan></text>
    <text id="Total_48.5_growth_this_month-2" data-name="Total 48.5% growth 😎 this month" transform="translate(956 494)" fill="#fff" font-size="5" font-family="Poppins-Regular, Poppins"><tspan x="0" y="0">Total 48.5% growth </tspan><tspan y="0" font-family="SegoeUIEmoji, Segoe UI Emoji">😎</tspan><tspan y="0" xml:space="preserve"> this month</tspan></text>
    <text id="Sales-2" data-name="Sales" transform="translate(976 511)" fill="#fff" font-size="5" font-family="Poppins-Regular, Poppins"><tspan x="0" y="0">Sales</tspan></text>
    <text id="Customers-2" data-name="Customers" transform="translate(1031 511)" fill="#fff" font-size="5" font-family="Poppins-Regular, Poppins"><tspan x="0" y="0">Customers</tspan></text>
    <text id="Volume-2" data-name="Volume" transform="translate(1085 511)" fill="#fff" font-size="5" font-family="Poppins-Regular, Poppins"><tspan x="0" y="0">Volume</tspan></text>
    <text id="Revenue-2" data-name="Revenue" transform="translate(1140 511)" fill="#fff" font-size="5" font-family="Poppins-Regular, Poppins"><tspan x="0" y="0">Revenue</tspan></text>
    <text id="_1_300-2" data-name="1,300" transform="translate(976 519)" fill="#fff" font-size="5" font-family="Poppins-Regular, Poppins"><tspan x="0" y="0">1,300</tspan></text>
    <text id="_13_495-2" data-name="13,495" transform="translate(1031 519)" fill="#fff" font-size="5" font-family="Poppins-Regular, Poppins"><tspan x="0" y="0">13,495</tspan></text>
    <text id="_3.89m-2" data-name="$ 3.89m" transform="translate(1085 519)" fill="#fff" font-size="5" font-family="Poppins-Regular, Poppins"><tspan x="0" y="0">$ 3.89m</tspan></text>
    <text id="_30.00k-2" data-name="$ 30.00k" transform="translate(1140 519)" fill="#fff" font-size="5" font-family="Poppins-Regular, Poppins"><tspan x="0" y="0">$ 30.00k</tspan></text>
    <rect id="Rectangle_37" data-name="Rectangle 37" width="15" height="16" rx="5" transform="translate(956 506)" fill="#9731ea"/>
    <rect id="Rectangle_38" data-name="Rectangle 38" width="15" height="16" rx="5" transform="translate(1011 506)" fill="#19a24c"/>
    <rect id="Rectangle_39" data-name="Rectangle 39" width="15" height="16" rx="5" transform="translate(1065 506)" fill="#ca8805"/>
    <rect id="Rectangle_40" data-name="Rectangle 40" width="15" height="16" rx="5" transform="translate(1120 506)" fill="#0284c6"/>
    <rect id="Rectangle_47" data-name="Rectangle 47" width="305" height="284" rx="45" transform="translate(917 543)" fill="#fff"/>
    <text id="Stats-3" data-name="Stats" transform="translate(949 573)" fill="#172b4b" font-size="24" font-family="Poppins-Regular, Poppins"><tspan x="0" y="0">Stats</tspan></text>
    <circle id="Ellipse_12" data-name="Ellipse 12" cx="13.5" cy="13.5" r="13.5" transform="translate(949 594)" fill="#d9272b"/>
    <ellipse id="Ellipse_13" data-name="Ellipse 13" cx="13.5" cy="14" rx="13.5" ry="14" transform="translate(949 641)" fill="#2b6ba2"/>
    <ellipse id="Ellipse_14" data-name="Ellipse 14" cx="13.5" cy="14" rx="13.5" ry="14" transform="translate(949 688)" fill="#e6580a"/>
    <ellipse id="Ellipse_15" data-name="Ellipse 15" cx="13.5" cy="14" rx="13.5" ry="14" transform="translate(949 733)" fill="#16a246"/>
    <circle id="Ellipse_16" data-name="Ellipse 16" cx="13.5" cy="13.5" r="13.5" transform="translate(949 781)" fill="#c98805"/>
    <rect id="Rectangle_48" data-name="Rectangle 48" width="27" height="27" rx="3" transform="translate(1164 591)" fill="#b5d9e2"/>
    <rect id="Rectangle_49" data-name="Rectangle 49" width="27" height="28" rx="3" transform="translate(1166 641)" fill="#b5d9e2"/>
    <rect id="Rectangle_50" data-name="Rectangle 50" width="27" height="28" rx="3" transform="translate(1166 688)" fill="#b5d9e2"/>
    <rect id="Rectangle_51" data-name="Rectangle 51" width="27" height="28" rx="3" transform="translate(1166 733)" fill="#b5d9e2"/>
    <rect id="Rectangle_52" data-name="Rectangle 52" width="27" height="27" rx="3" transform="translate(1166 781)" fill="#b5d9e2"/>
    <path id="Path_55" data-name="Path 55" d="M1399.361,920.45l3.733,3.571-3.733,3.408" transform="translate(-221.788 -129.499)" fill="none" stroke="#172b4b" stroke-linecap="round" stroke-linejoin="round" stroke-width="1"/>
    <path id="Path_56" data-name="Path 56" d="M1399.361,920.45l3.733,3.571-3.733,3.408" transform="translate(-221.788 -176.619)" fill="none" stroke="#172b4b" stroke-linecap="round" stroke-linejoin="round" stroke-width="1"/>
    <path id="Path_57" data-name="Path 57" d="M1399.361,920.45l3.733,3.571-3.733,3.408" transform="translate(-221.788 -222.219)" fill="none" stroke="#172b4b" stroke-linecap="round" stroke-linejoin="round" stroke-width="1"/>
    <path id="Path_58" data-name="Path 58" d="M1399.361,920.45l3.733,3.571-3.733,3.408" transform="translate(-221.788 -269.339)" fill="none" stroke="#172b4b" stroke-linecap="round" stroke-linejoin="round" stroke-width="1"/>
    <path id="Path_59" data-name="Path 59" d="M1399.361,920.45l3.733,3.571-3.733,3.408" transform="translate(-221.788 -319.499)" fill="none" stroke="#172b4b" stroke-linecap="round" stroke-linejoin="round" stroke-width="1"/>
    <text id="_12-3" data-name="12" transform="translate(957 612)" fill="#fff" font-size="11" font-family="Poppins-Regular, Poppins"><tspan x="0" y="0">12</tspan></text>
    <text id="Failed-3" data-name="Failed" transform="translate(985 606)" fill="#172b4b" font-size="11" font-family="Poppins-Regular, Poppins"><tspan x="0" y="0">Failed</tspan></text>
    <text id="In_Transit-3" data-name="In Transit" transform="translate(985 655)" fill="#172b4b" font-size="11" font-family="Poppins-Regular, Poppins"><tspan x="0" y="0">In Transit</tspan></text>
    <text id="Under_Review-3" data-name="Under Review" transform="translate(985 698)" fill="#172b4b" font-size="11" font-family="Poppins-Regular, Poppins"><tspan x="0" y="0">Under Review</tspan></text>
    <text id="Ready_for_payout-3" data-name="Ready for payout" transform="translate(985 745)" fill="#172b4b" font-size="11" font-family="Poppins-Regular, Poppins"><tspan x="0" y="0">Ready for payout</tspan></text>
    <text id="Document_Required-3" data-name="Document Required" transform="translate(985 793)" fill="#172b4b" font-size="11" font-family="Poppins-Regular, Poppins"><tspan x="0" y="0">Document Required</tspan></text>
    <text id="_12_Transactions-3" data-name="12 Transactions" transform="translate(985 618)" fill="#172b4b" font-size="9" font-family="Poppins-Regular, Poppins"><tspan x="0" y="0">12 Transactions</tspan></text>
    <text id="_30_Transactions-3" data-name="30 Transactions" transform="translate(985 666)" fill="#172b4b" font-size="9" font-family="Poppins-Regular, Poppins"><tspan x="0" y="0">30 Transactions</tspan></text>
    <text id="_10_Transactions-3" data-name="10 Transactions" transform="translate(985 709)" fill="#172b4b" font-size="8" font-family="Poppins-Regular, Poppins"><tspan x="0" y="0">10 Transactions</tspan></text>
    <text id="_65_Transactions-3" data-name="65 Transactions" transform="translate(985 757)" fill="#172b4b" font-size="8" font-family="Poppins-Regular, Poppins"><tspan x="0" y="0">65 Transactions</tspan></text>
    <text id="_07_Transactions-3" data-name="07 Transactions" transform="translate(985 804)" fill="#172b4b" font-size="8" font-family="Poppins-Regular, Poppins"><tspan x="0" y="0">07 Transactions</tspan></text>
    <text id="_30-3" data-name="30" transform="translate(955 659)" fill="#fff" font-size="11" font-family="Poppins-Regular, Poppins"><tspan x="0" y="0">30</tspan></text>
    <text id="_10-3" data-name="10" transform="translate(956 706)" fill="#fff" font-size="11" font-family="Poppins-Regular, Poppins"><tspan x="0" y="0">10</tspan></text>
    <text id="_65-3" data-name="65" transform="translate(955 751)" fill="#fff" font-size="11" font-family="Poppins-Regular, Poppins"><tspan x="0" y="0">65</tspan></text>
    <text id="_7-3" data-name="7" transform="translate(959 799)" fill="#fff" font-size="11" font-family="Poppins-Regular, Poppins"><tspan x="0" y="0">7</tspan></text>
  </g>
</svg>
