<?xml version="1.0" encoding="utf-8"?>
<!-- Generator: Adobe Illustrator 25.0.1, SVG Export Plug-In . SVG Version: 6.00 Build 0)  -->
<svg version="1.1" id="Layer_1" xmlns="http://www.w3.org/2000/svg" xmlns:xlink="http://www.w3.org/1999/xlink" x="0px" y="0px"
	 viewBox="0 0 145.47 49.6" style="enable-background:new 0 0 145.47 49.6;" xml:space="preserve">
<style type="text/css">
	.st0{fill:#00416B;}
	.st1{fill:#E1251B;}
	.st2{fill:#FFC600;}
	.st3{fill:#414042;}
	.st4{opacity:0.5;}
	.st5{fill:#F1F2F2;}
	.st6{fill:#FFFFFF;}
</style>
<g>
	<g>
		<path class="st1" d="M116.33,45.62c-1.53-2.93-1.32-3.38,1.02-5.72c1.09-1.09,1.78-2.63,2.47-4.05c0.21-0.43-0.09-1.21-0.34-1.74
			c-2.19-4.65-4.43-9.27-6.64-13.91c-0.37-0.78-0.67-1.58-1.12-2.65c1.63,0,2.98-0.15,4.27,0.07c0.53,0.09,1.07,0.89,1.35,1.49
			c1.48,3.09,2.88,6.22,4.31,9.33c0.19,0.41,0.43,0.8,0.82,1.51c1.03-2.81,1.94-5.32,2.86-7.83c0.16-0.44,0.31-0.88,0.46-1.32
			c1.26-3.62,1.74-3.88,5.87-3.05c-0.17,0.54-0.31,1.06-0.51,1.57c-2.42,6.08-4.88,12.13-7.26,18.22c-1.42,3.63-3.55,6.55-7.27,8.09
			H116.33z"/>
		<path class="st1" d="M77.06,33.75c0,2.58,0,4.96,0,7.34c0,2.37,0,2.37-2.44,2.36c-0.21,0-0.42-0.02-0.62,0
			c-1.13,0.09-1.61-0.44-1.59-1.56c0.03-1.97,0-3.94,0-5.91c0-5.39-0.03-10.79,0.03-16.18c0.01-0.74,0.23-1.94,0.67-2.12
			c1.1-0.43,2.37-0.31,3.19,0.86c0.14,0.21,0.31,0.4,0.55,0.71c1.92-1.61,3.98-2.63,6.55-2.1c1.96,0.41,3.61,1.32,4.89,2.83
			c2.88,3.4,2.98,8.71,0.27,12.11C85.7,35.66,82.04,36.25,77.06,33.75 M85.77,26.31c0-0.26,0.01-0.52,0-0.78
			c-0.19-2.57-2.22-4.34-4.85-4.21c-2.6,0.13-3.86,1.55-3.87,4.36c0,0.57,0,1.14,0,1.71c0.02,1.77,0.85,2.91,2.52,3.47
			C82.9,32,85.77,29.89,85.77,26.31"/>
		<path class="st1" d="M105.44,33.46c-4.12,2.88-8.17,2.51-11.31-1.13c-3.02-3.51-2.88-9.36,0.36-12.68
			c2.3-2.36,6.93-4.23,10.87-0.64c0.7-1.29,2.72-2.05,4.02-1.38c0.34,0.18,0.63,0.82,0.63,1.25c0.05,4.87,0.02,9.75,0.04,14.62
			c0.01,1.27-0.68,1.77-1.76,1.45C107.35,34.66,106.52,34.04,105.44,33.46 M105.4,26.33c0-3.52-1.22-5-4.15-5.02
			c-2.73-0.02-4.61,2.01-4.59,4.95c0.02,2.96,1.89,4.93,4.67,4.92C103.97,31.17,105.4,29.47,105.4,26.33"/>
	</g>
	<path class="st0" d="M19.01,12.77h5.48v15.57c0,4.71-2.77,6.98-6.45,6.98c-2.3,0-3.71-0.58-4.24-0.92l0.7-4.13
		c0.37,0.17,1.25,0.5,2.49,0.48c1.35-0.02,2.02-0.63,2.02-1.94V12.77z"/>
	<path class="st0" d="M37.87,34.99l-0.55-1.69c-0.65,0.73-2.42,2.02-4.85,2.02c-3.91,0-5.91-1.9-5.91-6.18V17.88h5.48v10.41
		c0,1.8,0.6,2.55,2.1,2.55c0.84,0,1.97-0.43,2.66-0.94V17.88h5.48v17.11H37.87z"/>
	<g>
		<path class="st0" d="M54.76,34.85V24.32c0-1.37-0.65-1.95-1.8-1.95c-1.15,0-1.88,0.83-2.31,1.51v10.96h-6.06V17.43h6.06v2.02
			c0.87-1.19,2.85-2.45,5.23-2.45c3.5,0,4.98,2.09,4.98,4.83v13.02H54.76z"/>
	</g>
	<g>
		<path class="st0" d="M62.4,12.6c0-1.91,1.55-3.46,3.46-3.46c1.91,0,3.46,1.55,3.46,3.46s-1.55,3.43-3.46,3.43
			C63.95,16.03,62.4,14.51,62.4,12.6z M62.83,34.85V17.43h6.06v17.42H62.83z"/>
	</g>
</g>
</svg>
