<?xml version="1.0" encoding="utf-8"?>
<!-- Generator: Adobe Illustrator 26.3.1, SVG Export Plug-In . SVG Version: 6.00 Build 0)  -->
<svg version="1.1" id="Layer_1" xmlns="http://www.w3.org/2000/svg" xmlns:xlink="http://www.w3.org/1999/xlink" x="0px" y="0px"
	 viewBox="0 0 466 103.3" style="enable-background:new 0 0 466 103.3;" xml:space="preserve">
<style type="text/css">
	.st0{fill:none;}
	.st1{fill:#B5CFFB;}
	.st2{fill:#DAE7FD;}
	.st3{fill:#90B8F8;}
	.st4{fill:#4688F4;}
	.st5{fill:#1D1D1B;}
</style>
<g>
	<path class="st0" d="M114.6,77.3h-5.2c0.7,0.1,1.3,0.2,2.1,0.2C112.5,77.5,113.6,77.4,114.6,77.3z"/>
	<path class="st1" d="M131.6,77.3h-17c-1,0.1-2.1,0.2-3.1,0.2c-0.8,0-1.4-0.2-2.1-0.2H84.2c0.9,2.3,2.2,4.3,3.9,6H134
		c0,0,0.1,0,0.1-0.1L131.6,77.3z"/>
	<polygon class="st1" points="221,77.3 219.8,83.3 237.6,83.3 238.8,77.3 	"/>
	<polygon class="st1" points="184.8,77.3 183.6,83.3 201,83.3 202.2,77.3 	"/>
	<polygon class="st1" points="148.2,77.3 147,83.3 164.8,83.3 166,77.3 	"/>
	<path class="st1" d="M290.7,83.3h29.5l-0.4-6H289C289.2,79.6,289.8,81.6,290.7,83.3z"/>
	<path class="st1" d="M386.5,77.3h-57.1l-2.3,3.2c1.2,1.1,2.6,1.9,4,2.9h50.7C383.6,81.6,385.2,79.6,386.5,77.3z"/>
	<path class="st1" d="M403.2,83.3h43.1c2.2-1.7,4.1-3.8,5.8-6h-52.8C400.2,79.5,401.6,81.5,403.2,83.3z"/>
	<polygon class="st1" points="252.1,77.3 250.9,83.3 268.6,83.3 269.8,77.3 	"/>
	<path class="st2" d="M89.9,84.9c4.6,3.8,11.1,6,19.4,6c8,0,15.2-2,22-6H89.9z"/>
	<polygon class="st2" points="219.5,84.9 218.3,90.9 236.1,90.9 237.3,84.9 	"/>
	<polygon class="st2" points="146.7,84.9 145.5,90.9 163.2,90.9 164.4,84.9 	"/>
	<polygon class="st2" points="183.3,84.9 182,90.9 199.5,90.9 200.7,84.9 	"/>
	<path class="st2" d="M320.3,84.9h-28.7c2.9,4,8,6,15.3,6c4.9,0,9.3-1,13.6-2.7L320.3,84.9z"/>
	<path class="st2" d="M357.7,90.9c9.1,0,16.5-2.1,22-6h-46.5C340,88.8,348.4,90.9,357.7,90.9z"/>
	<path class="st2" d="M405,84.9c4.5,3.8,10.7,6,18.5,6c7.7,0,14.6-2.2,20.4-6H405z"/>
	<polygon class="st2" points="250.5,84.9 249.3,90.9 267.1,90.9 268.3,84.9 	"/>
	<path class="st3" d="M103.4,75.7c-2.4-1.3-3.9-3.3-4.5-6H82.6c0.1,2.2,0.5,4.2,1.1,6H103.4z"/>
	<path class="st3" d="M129.5,72.1c-2.4,1.5-5,2.7-7.6,3.6h9.1L129.5,72.1z"/>
	<polygon class="st3" points="166.3,75.7 167.5,69.7 149.7,69.7 148.5,75.7 	"/>
	<polygon class="st3" points="203.7,69.7 186.3,69.7 185.1,75.7 202.5,75.7 	"/>
	<polygon class="st3" points="239.1,75.7 240.3,69.7 222.5,69.7 221.3,75.7 	"/>
	<path class="st3" d="M289,75.7h30.8l-0.1-2c-2.7,1-5,1.4-7,1.4c-3.9,0-5.4-1.7-5.2-5.4h-18C289.1,71.8,289,73.8,289,75.7z"/>
	<path class="st3" d="M387.3,75.7c0.8-1.8,1.5-3.7,2-5.8c0-0.1,0-0.1,0-0.2h-18.8c-1.2,3.4-5.3,5.4-12.1,5.4c-6.6,0-12.6-1.8-18-5.4
		H335l-4.5,6H387.3z"/>
	<path class="st3" d="M426.6,75.7h26.6c1.3-1.9,2.4-3.9,3.3-6h-18.6C435.2,73.1,431.1,75.3,426.6,75.7z"/>
	<path class="st3" d="M424.1,75.7c-4.3-0.4-7.3-2.5-8.7-6h-17.9c0.2,2.1,0.6,4.1,1.2,6H424.1z"/>
	<polygon class="st3" points="270.1,75.7 271.3,69.7 253.6,69.7 252.4,75.7 	"/>
	<polygon class="st0" points="44.9,66.5 35.1,66.5 34.8,68 45.5,68 	"/>
	<polygon class="st1" points="68.3,77.3 48.9,77.3 51.2,83.3 70.7,83.3 	"/>
	<polygon class="st1" points="33,77.3 14.2,77.3 13,83.3 31.8,83.3 	"/>
	<polygon class="st2" points="31.5,84.9 12.7,84.9 11.5,90.9 30.3,90.9 	"/>
	<polygon class="st2" points="51.8,84.9 54.1,90.9 73.7,90.9 71.3,84.9 	"/>
	<polygon class="st3" points="67.7,75.7 65.3,69.7 46.1,69.7 48.3,75.7 	"/>
	<polygon class="st3" points="34.5,69.7 15.7,69.7 14.5,75.7 33.3,75.7 	"/>
	<path class="st4" d="M35.1,66.5h9.7l0.6,1.6h19.2L63,64.1c9.5-3.7,16-11.1,18.1-21.5c3.2-16.1-6.6-27.4-23.5-27.4h-31L16,68h18.8
		L35.1,66.5z M42.1,30.5h11c7.6,0,11,4.1,9.7,11c-1.4,6.9-6.6,10.9-14.1,10.9h-11L42.1,30.5z"/>
	<path class="st4" d="M98.4,68h40.4c6.9-19-3.6-35.7-23.2-35.7c-16.2,0-29.2,11-32.5,28.1c-0.5,2.7-0.7,5.2-0.7,7.6L98.4,68
		C98.4,68,98.4,68,98.4,68z M115.3,45.8c6.5,0,10.1,4.2,10.2,10.9h-25C103.2,50.1,108.8,45.8,115.3,45.8z"/>
	<path class="st4" d="M169.1,61.7c1.4-7.2,6.2-11.9,12.2-11.9c5.6,0,8.1,4,6.8,10.9l-1.5,7.3H204l1.3-6.3
		c1.4-7.2,6.2-11.9,12.2-11.9c5.6,0,8.1,4,6.8,10.9l-1.5,7.3h17.8l2.4-11.9c2.6-13-4.5-21.8-17.3-21.8c-7.7,0-14.8,3.2-20.9,9.3
		c-2.3-5.9-7.6-9.3-15.1-9.3c-6.7,0-12.9,2.7-18.3,8.1l1.3-7.2h-16.1L150.1,68h17.7L169.1,61.7z"/>
	<path class="st4" d="M307.7,67.8l3.9-19.7h13.3l2.8-13.9h-13.4l2.7-13.4h-17.2l-3,13.4h-8.9l-2.8,13.9h8.8l-4,19.9h17.8
		C307.6,67.9,307.6,67.9,307.7,67.8z"/>
	<path class="st4" d="M368.9,43.9c-10.1-3-12.7-5.2-11.9-9.4c0.8-3.7,4.5-5.6,10.6-5.6c7.1,0,14.6,2.5,19,6.3l9.9-12.8
		c-7.4-5.9-16.5-9.1-27.9-9.1c-16.2,0-27,7.1-29.6,20.3c-2.5,12.3,3.9,20.5,19.4,25c9.4,2.7,12.9,5.4,12.6,9.5h18.5
		C391.1,56.4,384.3,48.5,368.9,43.9z"/>
	<path class="st4" d="M415.1,61.8c1.6-8.4,8.3-14.4,16.3-14.4c7.7,0,11.9,5.6,10.3,13.9c-0.5,2.5-1.4,4.7-2.6,6.6h18.1
		c0.6-1.7,1.1-3.4,1.5-5.2c3.7-18.1-6.7-30.5-25.5-30.5c-17.7,0-31.7,11.2-35.1,28.2c-0.5,2.6-0.7,5.1-0.6,7.5H415
		C414.6,66.2,414.6,64.1,415.1,61.8z"/>
	<polygon class="st4" points="275.8,47.2 258.1,47.2 253.9,68 271.6,68 	"/>
	<path class="st4" d="M268.5,40.9c5.9,0,10.9-4.1,12.1-9.9c1.2-6.5-2.7-10.7-8.9-10.7c-5.9,0-10.8,4-12,9.8
		C258.6,36.6,262.5,40.9,268.5,40.9z"/>
	<path class="st5" d="M425.4,75.8c0.4,0,0.9-0.1,1.3-0.1h-2.5C424.5,75.7,424.9,75.8,425.4,75.8z"/>
</g>
</svg>
